<svg width="46" height="46" viewBox="0 0 46 46" fill="none" xmlns="http://www.w3.org/2000/svg">
<circle cx="23" cy="23" r="23" fill="#353340"/>
<path d="M24.0115 12.1725C24.0115 11.5396 23.4823 11 22.8494 11C22.2164 11 21.6769 11.5396 21.6769 12.1725V14.2269C21.6769 14.8599 22.2164 15.389 22.8494 15.389C23.4823 15.389 24.0115 14.8599 24.0115 14.2269V12.1725ZM28.1204 15.9597C27.6742 16.4059 27.6846 17.1633 28.1307 17.6095C28.5665 18.0453 29.324 18.0557 29.7805 17.5991L31.2332 16.1361C31.6689 15.7003 31.6689 14.9325 31.2228 14.4863C30.7766 14.0402 30.0192 14.0505 29.573 14.4967L28.1204 15.9597ZM15.9182 17.5991C16.354 18.0453 17.1115 18.0453 17.5576 17.6095C18.0038 17.1633 18.0142 16.3955 17.5784 15.9597L16.1257 14.4967C15.6899 14.0609 14.9221 14.0402 14.4863 14.4863C14.0298 14.9325 14.0298 15.7003 14.4656 16.1257L15.9182 17.5991ZM22.839 17.2567C19.7781 17.2567 17.2463 19.7885 17.2463 22.8597C17.2463 25.931 19.7781 28.4628 22.839 28.4628C25.9103 28.4628 28.442 25.931 28.442 22.8597C28.442 19.7885 25.9103 17.2567 22.839 17.2567ZM33.5262 24.0219C34.1592 24.0219 34.6987 23.4927 34.6987 22.8597C34.6987 22.2268 34.1592 21.6976 33.5262 21.6976H31.4822C30.8492 21.6976 30.3201 22.2268 30.3201 22.8597C30.3201 23.4927 30.8492 24.0219 31.4822 24.0219H33.5262ZM12.1621 21.6976C11.5292 21.6976 11 22.2268 11 22.8597C11 23.4927 11.5292 24.0219 12.1621 24.0219H14.2166C14.8495 24.0219 15.3787 23.4927 15.3787 22.8597C15.3787 22.2268 14.8495 21.6976 14.2166 21.6976H12.1621ZM29.7598 28.1204C29.324 27.6846 28.5665 27.6846 28.1204 28.1307C27.6742 28.5769 27.6846 29.324 28.1307 29.7805L29.5938 31.2435C30.0399 31.6793 30.787 31.6689 31.2435 31.2228C31.6793 30.7766 31.6793 30.0192 31.2332 29.573L29.7598 28.1204ZM14.4656 29.573C14.0194 30.0088 14.009 30.7766 14.4448 31.2124C14.891 31.6586 15.6588 31.6689 16.0946 31.2332L17.5576 29.7805C18.0038 29.3344 18.0142 28.5769 17.5784 28.1411C17.1322 27.6846 16.3644 27.6846 15.9182 28.1204L14.4656 29.573ZM24.0115 31.4926C24.0115 30.8596 23.4823 30.3304 22.8494 30.3304C22.2164 30.3304 21.6769 30.8596 21.6769 31.4926V33.547C21.6769 34.1799 22.2164 34.7195 22.8494 34.7195C23.4823 34.7195 24.0115 34.1799 24.0115 33.547V31.4926Z" fill="#FFCD00"/>
</svg>
